<?xml version="1.0" encoding="utf-8"?>
<!-- Generator: Adobe Illustrator 19.0.1, SVG Export Plug-In . SVG Version: 6.00 Build 0)  -->
<svg version="1.1" id="Промо" xmlns="http://www.w3.org/2000/svg" xmlns:xlink="http://www.w3.org/1999/xlink" x="0px" y="0px"
	 viewBox="0 0 386.5 286.2" style="enable-background:new 0 0 386.5 286.2;" xml:space="preserve">
<style type="text/css">
	.st0{fill:#FFFFFF;}
	.st1{fill:#FBB03B;}
	.st2{fill:#414042;}
	.st3{fill-rule:evenodd;clip-rule:evenodd;fill:#D4DBDD;}
	.st4{fill-rule:evenodd;clip-rule:evenodd;fill:#F7F9F8;}
	.st5{fill:#E6E7E8;}
	.st6{fill:#E0DEDC;}
	.st7{fill:#8D4220;}
	.st8{fill:#512812;}
</style>
<g id="Comp">
	<g id="telephone">
		<path class="st0" d="M371.9,204.7c-0.2,1.2-1.4,2.1-2.6,1.8l-44.7-7.7c-1.2-0.2-2.1-1.4-1.8-2.6l14.5-84.7
			c0.2-1.2,1.4-2.1,2.6-1.8l44.7,7.7c1.2,0.2,2.1,1.4,1.8,2.6L371.9,204.7z"/>
		
			<rect x="331.3" y="122.5" transform="matrix(0.9856 0.1692 -0.1692 0.9856 31.8358 -57.7109)" class="st1" width="46.8" height="71"/>
		<path class="st2" d="M350.7,198c0.3-1.6-0.8-3-2.3-3.3c-1.6-0.3-3,0.8-3.3,2.3c-0.3,1.6,0.8,3,2.3,3.3
			C348.9,200.6,350.4,199.5,350.7,198z"/>
		<circle class="st2" cx="361.5" cy="118.2" r="1.3"/>
	</g>
	<g id="laptop">
		<g>
			<path class="st3" d="M64.1,27.5l232-18.7c3-0.2,5.6,2,5.8,5l12.1,150.5c0.2,3-2,5.6-5,5.8l-232,18.7c-3,0.2-5.6-2-5.8-5
				L59.2,33.4C58.9,30.4,61.2,27.7,64.1,27.5z"/>
			<path class="st4" d="M279.7,31.8l7.5-0.6c0.9-0.1,1.6,0.6,1.7,1.4l0.4,5.6c0.1,0.9-0.6,1.6-1.4,1.7l-7.5,0.6
				c-0.8,0.1-1.6-0.6-1.7-1.4l-0.4-5.6C278.2,32.6,278.8,31.8,279.7,31.8z"/>
			<path class="st4" d="M280.9,42.4l6.8-0.5c1-0.1,2,0.7,2,1.7l0.6,7.5c0.1,1-0.7,2-1.7,2l-6.8,0.5c-1,0.1-2-0.7-2-1.7l-0.6-7.5
				C279,43.4,279.8,42.5,280.9,42.4z"/>
			<path class="st4" d="M281.9,55.7l6.8-0.6c1-0.1,2,0.7,2.1,1.7l0.6,7.5c0.1,1-0.7,2-1.7,2l-6.8,0.5c-1,0.1-2-0.7-2-1.7l-0.6-7.6
				C280.1,56.7,280.9,55.7,281.9,55.7z"/>
			<path class="st4" d="M283,68.9l6.8-0.6c1-0.1,2,0.7,2,1.7l0.6,7.5c0.1,1-0.7,2-1.7,2l-6.8,0.5c-1,0.1-2-0.7-2-1.7l-0.6-7.5
				C281.2,69.9,282,69,283,68.9z"/>
			<path class="st4" d="M284.1,82.2l6.8-0.5c1-0.1,2,0.7,2,1.7l0.6,7.5c0.1,1-0.7,2-1.7,2l-6.8,0.6c-1,0.1-2-0.7-2-1.7l-0.6-7.5
				C282.2,83.2,283,82.3,284.1,82.2z"/>
			<path class="st4" d="M285.1,95.5l6.8-0.6c1-0.1,2,0.7,2,1.7l0.6,7.5c0.1,1-0.7,2-1.7,2l-6.8,0.6c-1,0.1-2-0.7-2-1.7l-0.6-7.5
				C283.3,96.5,284.1,95.6,285.1,95.5z"/>
			<path class="st4" d="M266.4,32.8l7.5-0.6c0.9-0.1,1.6,0.6,1.7,1.4l0.4,5.6c0.1,0.9-0.6,1.6-1.4,1.7l-7.5,0.6
				c-0.9,0.1-1.6-0.6-1.7-1.4l-0.5-5.6C264.9,33.7,265.6,32.9,266.4,32.8z"/>
			<path class="st4" d="M255.5,44.4l18.8-1.5c1.1-0.1,2.1,0.7,2.2,1.9l0.6,7.3c0.1,1.1-0.7,2.1-1.9,2.2l-18.8,1.5
				c-1.1,0.1-2.1-0.7-2.2-1.9l-0.6-7.3C253.6,45.5,254.4,44.5,255.5,44.4z"/>
			<path class="st4" d="M265.2,57l10.2-0.8c1.1-0.1,2.1,0.7,2.2,1.9l0.6,7.3c0.1,1.1-0.7,2.1-1.9,2.2l-10.1,0.8
				c-1.1,0.1-2.1-0.7-2.2-1.9l-0.6-7.3C263.3,58.1,264.1,57.1,265.2,57z"/>
			<path class="st4" d="M256.2,71.1l20.3-1.6c1.1-0.1,2.1,0.7,2.2,1.9l0.6,7.3c0.1,1.1-0.7,2.1-1.9,2.2l-20.3,1.6
				c-1.1,0.1-2.1-0.7-2.2-1.9l-0.6-7.3C254.2,72.2,255.1,71.2,256.2,71.1z"/>
			<path class="st4" d="M270.8,83.3l6.8-0.5c1-0.1,2,0.7,2,1.7l0.6,7.5c0.1,1-0.7,2-1.7,2l-6.8,0.5c-1,0.1-2-0.7-2-1.7l-0.6-7.5
				C269,84.3,269.8,83.4,270.8,83.3z"/>
			<path class="st4" d="M271.9,96.6l6.8-0.5c1-0.1,2,0.7,2,1.7l0.6,7.5c0.1,1-0.7,2-1.7,2l-6.8,0.5c-1,0.1-2-0.7-2-1.7l-0.6-7.5
				C270.1,97.6,270.9,96.7,271.9,96.6z"/>
			<path class="st4" d="M254.2,33.8l6.5-0.5c0.9-0.1,1.6,0.6,1.7,1.4l0.4,5.6c0.1,0.9-0.6,1.6-1.4,1.7l-6.5,0.5
				c-0.9,0.1-1.6-0.6-1.7-1.4l-0.4-5.6C252.7,34.7,253.3,33.9,254.2,33.8z"/>
			<path class="st4" d="M241.8,34.8l6.5-0.5c0.9-0.1,1.6,0.6,1.7,1.4l0.4,5.6c0.1,0.9-0.6,1.6-1.4,1.7l-6.5,0.5
				c-0.9,0.1-1.6-0.6-1.7-1.4l-0.5-5.6C240.3,35.7,240.9,34.9,241.8,34.8z"/>
			<path class="st4" d="M229.3,35.8l6.5-0.5c0.8-0.1,1.6,0.6,1.7,1.4l0.4,5.6c0.1,0.8-0.6,1.6-1.4,1.7l-6.5,0.5
				c-0.9,0.1-1.6-0.6-1.7-1.4l-0.5-5.6C227.8,36.7,228.5,35.9,229.3,35.8z"/>
			<path class="st4" d="M216.9,36.8l6.5-0.5c0.8-0.1,1.6,0.6,1.7,1.4l0.5,5.6c0.1,0.9-0.6,1.6-1.4,1.7l-6.5,0.5
				c-0.8,0.1-1.6-0.6-1.7-1.4l-0.4-5.6C215.4,37.7,216.1,36.9,216.9,36.8z"/>
			<path class="st4" d="M204.5,37.8l6.5-0.5c0.9-0.1,1.6,0.6,1.7,1.4l0.5,5.6c0.1,0.8-0.6,1.6-1.4,1.7l-6.5,0.5
				c-0.9,0.1-1.6-0.6-1.7-1.4l-0.4-5.6C203,38.7,203.6,37.9,204.5,37.8z"/>
			<path class="st4" d="M192.1,38.8l6.5-0.5c0.9-0.1,1.6,0.6,1.7,1.4l0.4,5.6c0.1,0.8-0.6,1.6-1.4,1.7l-6.5,0.5
				c-0.9,0.1-1.6-0.6-1.7-1.4l-0.5-5.6C190.6,39.7,191.2,38.9,192.1,38.8z"/>
			<path class="st4" d="M179.6,39.8l6.5-0.5c0.9-0.1,1.6,0.6,1.7,1.4l0.5,5.6c0.1,0.9-0.6,1.6-1.4,1.7l-6.5,0.5
				c-0.8,0.1-1.6-0.6-1.7-1.4l-0.4-5.6C178.1,40.7,178.8,39.9,179.6,39.8z"/>
			<path class="st4" d="M167.2,40.8l6.5-0.5c0.9-0.1,1.6,0.6,1.7,1.4l0.4,5.6c0.1,0.8-0.6,1.6-1.4,1.7l-6.5,0.5
				c-0.9,0.1-1.6-0.6-1.7-1.4l-0.5-5.6C165.7,41.7,166.4,40.9,167.2,40.8z"/>
			<path class="st4" d="M154.8,41.8l6.5-0.5c0.8-0.1,1.6,0.6,1.7,1.4l0.4,5.6c0.1,0.9-0.6,1.6-1.4,1.7l-6.5,0.5
				c-0.8,0.1-1.6-0.6-1.7-1.4l-0.4-5.6C153.3,42.7,153.9,41.9,154.8,41.8z"/>
			<path class="st4" d="M142.4,42.8l6.5-0.5c0.8-0.1,1.6,0.6,1.7,1.4l0.4,5.6c0.1,0.8-0.6,1.6-1.4,1.7l-6.5,0.5
				c-0.9,0.1-1.6-0.6-1.7-1.4l-0.4-5.6C140.9,43.7,141.5,42.9,142.4,42.8z"/>
			<path class="st4" d="M129.9,43.8l6.5-0.5c0.9-0.1,1.6,0.6,1.7,1.4l0.5,5.6c0.1,0.8-0.6,1.6-1.4,1.7l-6.5,0.5
				c-0.8,0.1-1.6-0.6-1.7-1.4l-0.4-5.6C128.4,44.7,129.1,43.9,129.9,43.8z"/>
			<path class="st4" d="M117.5,44.8l6.5-0.5c0.9-0.1,1.6,0.6,1.7,1.4l0.5,5.6c0.1,0.9-0.6,1.6-1.4,1.7l-6.5,0.5
				c-0.9,0.1-1.6-0.6-1.7-1.4l-0.5-5.6C116,45.7,116.7,44.9,117.5,44.8z"/>
			<path class="st4" d="M105.1,45.8l6.5-0.5c0.8-0.1,1.6,0.6,1.7,1.4l0.5,5.6c0.1,0.8-0.6,1.6-1.4,1.7l-6.5,0.5
				c-0.9,0.1-1.6-0.6-1.7-1.4l-0.4-5.6C103.6,46.7,104.2,45.9,105.1,45.8z"/>
			<path class="st4" d="M92.7,46.8l6.5-0.5c0.9-0.1,1.6,0.6,1.7,1.4l0.4,5.6c0.1,0.8-0.6,1.6-1.4,1.7l-6.5,0.5
				c-0.8,0.1-1.6-0.6-1.7-1.4l-0.4-5.6C91.2,47.7,91.8,46.9,92.7,46.8z"/>
			<path class="st4" d="M78.7,48l7.5-0.6c0.9-0.1,1.6,0.6,1.7,1.4l0.4,5.6c0.1,0.9-0.6,1.6-1.4,1.7l-7.5,0.6
				c-0.8,0.1-1.6-0.6-1.7-1.4l-0.4-5.6C77.2,48.8,77.8,48,78.7,48z"/>
			<path class="st4" d="M242.1,45.5l6.7-0.5c1-0.1,1.9,0.7,2,1.7l0.6,7.6c0.1,1-0.7,1.9-1.7,2l-6.7,0.5c-1,0.1-1.9-0.7-2-1.7
				l-0.6-7.6C240.3,46.5,241.1,45.6,242.1,45.5z"/>
			<path class="st4" d="M228.6,46.6l6.7-0.5c1-0.1,1.9,0.7,2,1.7l0.6,7.6c0.1,1-0.7,1.9-1.7,2l-6.7,0.5c-1,0.1-1.9-0.7-2-1.7
				l-0.6-7.6C226.8,47.6,227.6,46.7,228.6,46.6z"/>
			<path class="st4" d="M215.2,47.7l6.7-0.5c1-0.1,1.9,0.7,2,1.7l0.6,7.6c0.1,1-0.7,1.9-1.7,2l-6.7,0.5c-1,0.1-1.9-0.7-2-1.7
				l-0.6-7.6C213.4,48.7,214.1,47.7,215.2,47.7z"/>
			<path class="st4" d="M201.7,48.8l6.7-0.5c1-0.1,1.9,0.7,2,1.7l0.6,7.6c0.1,1-0.7,1.9-1.7,2l-6.7,0.5c-1,0.1-1.9-0.7-2-1.7
				l-0.6-7.6C199.9,49.7,200.7,48.8,201.7,48.8z"/>
			<path class="st4" d="M188.2,49.8l6.7-0.5c1-0.1,1.9,0.7,2,1.7l0.6,7.6c0.1,1-0.7,1.9-1.7,2l-6.7,0.5c-1,0.1-1.9-0.7-2-1.7
				l-0.6-7.6C186.4,50.8,187.2,49.9,188.2,49.8z"/>
			<path class="st4" d="M174.7,50.9l6.7-0.5c1-0.1,1.9,0.7,2,1.7l0.6,7.6c0.1,1-0.7,1.9-1.7,2l-6.7,0.5c-1,0.1-1.9-0.7-2-1.7
				l-0.6-7.6C172.9,51.9,173.7,51,174.7,50.9z"/>
			<path class="st4" d="M161.2,52l6.7-0.5c1-0.1,1.9,0.7,2,1.7l0.6,7.6c0.1,1-0.7,1.9-1.7,2l-6.7,0.5c-1,0.1-1.9-0.7-2-1.7l-0.6-7.6
				C159.4,53,160.2,52.1,161.2,52z"/>
			<path class="st4" d="M147.7,53.1l6.7-0.5c1-0.1,1.9,0.7,2,1.7l0.6,7.6c0.1,1-0.7,1.9-1.7,2l-6.7,0.5c-1,0.1-1.9-0.7-2-1.7
				l-0.6-7.6C146,54.1,146.7,53.2,147.7,53.1z"/>
			<path class="st4" d="M134.3,54.2l6.7-0.5c1-0.1,1.9,0.7,2,1.7l0.6,7.6c0.1,1-0.7,1.9-1.7,2l-6.7,0.5c-1,0.1-1.9-0.7-2-1.7
				l-0.6-7.6C132.5,55.2,133.2,54.3,134.3,54.2z"/>
			<path class="st4" d="M120.8,55.3l6.7-0.5c1-0.1,1.9,0.7,2,1.7l0.6,7.6c0.1,1-0.7,1.9-1.7,2l-6.7,0.5c-1,0.1-1.9-0.7-2-1.7
				l-0.6-7.6C119,56.3,119.8,55.4,120.8,55.3z"/>
			<path class="st4" d="M107.3,56.4l6.7-0.5c1-0.1,1.9,0.7,2,1.7l0.6,7.6c0.1,1-0.7,1.9-1.7,2l-6.7,0.5c-1,0.1-1.9-0.7-2-1.7
				l-0.6-7.6C105.5,57.3,106.3,56.4,107.3,56.4z"/>
			<path class="st4" d="M93.8,57.4l6.7-0.5c1-0.1,1.9,0.7,2,1.7l0.6,7.6c0.1,1-0.7,1.9-1.7,2l-6.7,0.5c-1,0.1-1.9-0.7-2-1.7
				l-0.6-7.6C92,58.4,92.8,57.5,93.8,57.4z"/>
			<path class="st4" d="M79.9,58.6l6.8-0.5c1-0.1,2,0.7,2,1.7l0.6,7.5c0.1,1-0.7,2-1.7,2l-6.8,0.5c-1,0.1-2-0.7-2-1.7l-0.6-7.5
				C78.1,59.6,78.9,58.7,79.9,58.6z"/>
			<path class="st4" d="M81.1,71.8l14-1.1c1.1-0.1,2.1,0.7,2.2,1.9l0.6,7.3C98,81,97.1,81.9,96,82l-14,1.1c-1.1,0.1-2.1-0.7-2.2-1.9
				L79.2,74C79.2,72.9,80,71.9,81.1,71.8z"/>
			<path class="st4" d="M82.2,85.1l16.7-1.3c1.1-0.1,2.1,0.7,2.2,1.9l0.6,7.3c0.1,1.1-0.8,2.1-1.9,2.2l-16.6,1.3
				c-1.1,0.1-2.1-0.7-2.2-1.9l-0.6-7.3C80.2,86.2,81.1,85.2,82.2,85.1z"/>
			<path class="st4" d="M83.2,98.4l23.9-1.9c1.1-0.1,2.1,0.8,2.2,1.9l0.6,7.3c0.1,1.1-0.7,2.1-1.9,2.2l-23.9,1.9
				c-1.1,0.1-2.1-0.7-2.2-1.9l-0.6-7.3C81.3,99.5,82.1,98.5,83.2,98.4z"/>
			<path class="st4" d="M84.3,111.7l9.9-0.8c1.1-0.1,2.1,0.8,2.2,1.9L97,120c0.1,1.1-0.7,2.1-1.9,2.2l-9.9,0.8
				c-1.1,0.1-2.1-0.8-2.2-1.9l-0.6-7.3C82.4,112.8,83.2,111.8,84.3,111.7z"/>
			<path class="st4" d="M100.8,70.3l7.2-0.6c1.1-0.1,2.1,0.7,2.1,1.8l0.6,7.3c0.1,1.1-0.7,2.1-1.8,2.1l-7.2,0.6
				c-1.1,0.1-2.1-0.7-2.1-1.8L99,72.4C98.9,71.3,99.7,70.3,100.8,70.3z"/>
			<path class="st4" d="M114.5,69.1l7.2-0.6c1.1-0.1,2.1,0.7,2.1,1.8l0.6,7.3c0.1,1.1-0.7,2.1-1.8,2.1l-7.1,0.6
				c-1.1,0.1-2.1-0.7-2.2-1.8l-0.6-7.3C112.6,70.2,113.4,69.2,114.5,69.1z"/>
			<path class="st4" d="M128.3,68l7.2-0.6c1.1-0.1,2.1,0.7,2.1,1.8l0.6,7.4c0.1,1.1-0.7,2.1-1.8,2.2l-7.2,0.6
				c-1.1,0.1-2.1-0.7-2.1-1.8l-0.6-7.4C126.4,69.1,127.2,68.1,128.3,68z"/>
			<path class="st4" d="M142,66.9l7.2-0.6c1.1-0.1,2.1,0.7,2.1,1.8l0.6,7.3c0.1,1.1-0.7,2.1-1.8,2.1l-7.2,0.6
				c-1.1,0.1-2.1-0.7-2.2-1.8l-0.6-7.4C140.1,68,140.9,67,142,66.9z"/>
			<path class="st4" d="M155.7,65.8l7.1-0.6c1.1-0.1,2.1,0.7,2.1,1.8l0.6,7.3c0.1,1.1-0.7,2.1-1.8,2.1l-7.1,0.6
				c-1.1,0.1-2.1-0.7-2.2-1.8l-0.6-7.3C153.8,66.9,154.6,65.9,155.7,65.8z"/>
			<path class="st4" d="M169.5,64.7l7.2-0.6c1.1-0.1,2.1,0.7,2.1,1.8l0.6,7.3c0.1,1.1-0.7,2.1-1.8,2.1l-7.2,0.6
				c-1.1,0.1-2.1-0.7-2.1-1.8l-0.6-7.3C167.6,65.8,168.4,64.8,169.5,64.7z"/>
			<path class="st4" d="M183.2,63.6l7.1-0.6c1.1-0.1,2.1,0.7,2.2,1.8l0.6,7.3c0.1,1.1-0.7,2.1-1.8,2.1l-7.1,0.6
				c-1.1,0.1-2.1-0.7-2.1-1.8l-0.6-7.4C181.3,64.7,182.1,63.7,183.2,63.6z"/>
			<path class="st4" d="M196.9,62.5l7.2-0.6c1.1-0.1,2.1,0.7,2.1,1.8l0.6,7.3c0.1,1.1-0.7,2.1-1.8,2.1l-7.2,0.6
				c-1.1,0.1-2.1-0.7-2.1-1.8l-0.6-7.3C195,63.6,195.8,62.6,196.9,62.5z"/>
			<path class="st4" d="M210.7,61.4l7.2-0.6c1.1-0.1,2.1,0.7,2.1,1.8l0.6,7.3c0.1,1.1-0.7,2.1-1.8,2.1l-7.2,0.6
				c-1.1,0.1-2.1-0.7-2.1-1.8l-0.6-7.3C208.8,62.5,209.6,61.5,210.7,61.4z"/>
			<path class="st4" d="M224.4,60.3l7.2-0.6c1.1-0.1,2.1,0.7,2.1,1.8l0.6,7.4c0.1,1.1-0.7,2.1-1.8,2.2l-7.2,0.6
				c-1.1,0.1-2.1-0.7-2.1-1.8l-0.6-7.3C222.5,61.3,223.3,60.4,224.4,60.3z"/>
			<path class="st4" d="M238.1,59.2l7.2-0.6c1.1-0.1,2.1,0.7,2.1,1.8l0.6,7.4c0.1,1.1-0.7,2.1-1.8,2.1l-7.1,0.6
				c-1.1,0.1-2.1-0.7-2.2-1.8l-0.6-7.3C236.2,60.2,237.1,59.3,238.1,59.2z"/>
			<path class="st4" d="M251.9,58.1l7.2-0.6c1.1-0.1,2.1,0.7,2.1,1.8l0.6,7.3c0.1,1.1-0.7,2.1-1.8,2.2l-7.2,0.6
				c-1.1,0.1-2.1-0.7-2.1-1.8l-0.6-7.3C250,59.1,250.8,58.2,251.9,58.1z"/>
			<path class="st4" d="M105.7,83.2l7.2-0.6c1.1-0.1,2.1,0.7,2.2,1.8l0.6,7.3c0.1,1.1-0.7,2.1-1.8,2.1l-7.2,0.6
				c-1.1,0.1-2.1-0.7-2.1-1.8l-0.6-7.4C103.8,84.3,104.6,83.3,105.7,83.2z"/>
			<path class="st4" d="M119.4,82.1l7.2-0.6c1.1-0.1,2.1,0.7,2.1,1.8l0.6,7.3c0.1,1.1-0.7,2.1-1.8,2.2l-7.2,0.6
				c-1.1,0.1-2.1-0.7-2.1-1.8l-0.6-7.3C117.5,83.2,118.3,82.2,119.4,82.1z"/>
			<path class="st4" d="M133.2,81l7.1-0.6c1.1-0.1,2.1,0.7,2.1,1.8l0.6,7.4c0.1,1.1-0.7,2.1-1.8,2.1l-7.2,0.6
				c-1.1,0.1-2.1-0.7-2.1-1.8l-0.6-7.3C131.2,82.1,132.1,81.1,133.2,81z"/>
			<path class="st4" d="M146.9,79.9l7.2-0.6c1.1-0.1,2.1,0.7,2.1,1.8l0.6,7.3c0.1,1.1-0.7,2.1-1.8,2.1l-7.2,0.6
				c-1.1,0.1-2.1-0.7-2.2-1.8l-0.6-7.3C145,81,145.8,80,146.9,79.9z"/>
			<path class="st4" d="M160.6,78.8l7.2-0.6c1.1-0.1,2.1,0.7,2.2,1.8l0.6,7.3c0.1,1.1-0.7,2.1-1.8,2.1l-7.2,0.6
				c-1.1,0.1-2.1-0.7-2.2-1.8l-0.6-7.3C158.7,79.9,159.5,78.9,160.6,78.8z"/>
			<path class="st4" d="M174.4,77.7l7.2-0.6c1.1-0.1,2.1,0.7,2.1,1.8l0.6,7.4c0.1,1.1-0.7,2.1-1.8,2.1l-7.2,0.6
				c-1.1,0.1-2.1-0.7-2.1-1.8l-0.6-7.4C172.4,78.7,173.3,77.8,174.4,77.7z"/>
			<path class="st4" d="M188.1,76.6l7.1-0.6c1.1-0.1,2.1,0.7,2.2,1.8l0.6,7.4c0.1,1.1-0.7,2.1-1.8,2.1l-7.2,0.6
				c-1.1,0.1-2.1-0.7-2.1-1.8l-0.6-7.3C186.2,77.6,187,76.7,188.1,76.6z"/>
			<path class="st4" d="M201.8,75.5l7.2-0.6c1.1-0.1,2.1,0.7,2.2,1.8l0.6,7.3c0.1,1.1-0.7,2.1-1.8,2.1l-7.2,0.6
				c-1.1,0.1-2.1-0.7-2.1-1.8l-0.6-7.3C199.9,76.5,200.7,75.6,201.8,75.5z"/>
			<path class="st4" d="M215.6,74.4l7.1-0.6c1.1-0.1,2.1,0.7,2.2,1.8l0.6,7.3c0.1,1.1-0.7,2.1-1.8,2.1l-7.2,0.6
				c-1.1,0.1-2.1-0.7-2.2-1.8l-0.6-7.3C213.6,75.4,214.5,74.5,215.6,74.4z"/>
			<path class="st4" d="M229.3,73.3l7.2-0.6c1.1-0.1,2.1,0.7,2.2,1.8l0.6,7.3c0.1,1.1-0.7,2.1-1.8,2.2l-7.2,0.6
				c-1.1,0.1-2.1-0.7-2.1-1.8l-0.6-7.3C227.4,74.3,228.2,73.4,229.3,73.3z"/>
			<path class="st4" d="M243,72.2l7.1-0.6c1.1-0.1,2.1,0.7,2.2,1.8l0.6,7.3c0.1,1.1-0.7,2.1-1.8,2.1l-7.2,0.6
				c-1.1,0.1-2.1-0.7-2.1-1.8l-0.6-7.4C241.1,73.2,241.9,72.3,243,72.2z"/>
			<path class="st4" d="M114,95.9l7.2-0.6c1.1-0.1,2.1,0.7,2.1,1.8l0.6,7.3c0.1,1.1-0.7,2.1-1.8,2.2l-7.2,0.6
				c-1.1,0.1-2.1-0.7-2.1-1.8l-0.6-7.4C112,97,112.9,96,114,95.9z"/>
			<path class="st4" d="M127.7,94.8l7.2-0.6c1.1-0.1,2.1,0.7,2.2,1.8l0.6,7.3c0.1,1.1-0.7,2.1-1.8,2.1l-7.2,0.6
				c-1.1,0.1-2.1-0.7-2.1-1.8l-0.6-7.3C125.8,95.9,126.6,94.9,127.7,94.8z"/>
			<path class="st4" d="M141.4,93.7l7.2-0.6c1.1-0.1,2.1,0.7,2.1,1.8l0.6,7.3c0.1,1.1-0.7,2.1-1.8,2.1l-7.1,0.6
				c-1.1,0.1-2.1-0.7-2.1-1.8l-0.6-7.3C139.5,94.8,140.3,93.8,141.4,93.7z"/>
			<path class="st4" d="M155.2,92.6l7.1-0.6c1.1-0.1,2.1,0.7,2.2,1.8l0.6,7.3c0.1,1.1-0.7,2.1-1.8,2.1l-7.2,0.6
				c-1.1,0.1-2.1-0.7-2.2-1.8l-0.6-7.4C153.2,93.7,154.1,92.7,155.2,92.6z"/>
			<path class="st4" d="M168.9,91.5l7.2-0.6c1.1-0.1,2.1,0.7,2.1,1.8l0.6,7.3c0.1,1.1-0.7,2.1-1.8,2.1l-7.1,0.6
				c-1.1,0.1-2.1-0.7-2.1-1.8l-0.6-7.4C167,92.6,167.8,91.6,168.9,91.5z"/>
			<path class="st4" d="M182.6,90.4l7.2-0.6c1.1-0.1,2.1,0.7,2.2,1.8l0.6,7.4c0.1,1.1-0.7,2.1-1.8,2.1l-7.2,0.6
				c-1.1,0.1-2.1-0.7-2.1-1.8l-0.6-7.3C180.7,91.5,181.5,90.5,182.6,90.4z"/>
			<path class="st4" d="M196.4,89.3l7.2-0.6c1.1-0.1,2.1,0.7,2.2,1.8l0.6,7.3c0.1,1.1-0.7,2.1-1.8,2.2l-7.2,0.6
				c-1.1,0.1-2.1-0.7-2.1-1.8l-0.6-7.4C194.4,90.4,195.3,89.4,196.4,89.3z"/>
			<path class="st4" d="M210.1,88.2l7.2-0.6c1.1-0.1,2.1,0.7,2.2,1.8l0.6,7.3c0.1,1.1-0.7,2.1-1.8,2.2l-7.2,0.6
				c-1.1,0.1-2.1-0.7-2.1-1.8l-0.6-7.3C208.2,89.2,209,88.3,210.1,88.2z"/>
			<path class="st4" d="M223.8,87.1l7.2-0.6c1.1-0.1,2.1,0.7,2.1,1.8l0.6,7.4c0.1,1.1-0.7,2.1-1.8,2.1l-7.1,0.6
				c-1.1,0.1-2.1-0.7-2.1-1.8l-0.6-7.3C221.9,88.1,222.7,87.2,223.8,87.1z"/>
			<path class="st4" d="M237.6,86l7.2-0.6c1.1-0.1,2.1,0.7,2.2,1.8l0.6,7.4c0.1,1.1-0.7,2.1-1.8,2.1l-7.2,0.6
				c-1.1,0.1-2.1-0.7-2.1-1.8l-0.6-7.3C235.6,87,236.5,86.1,237.6,86z"/>
			<path class="st4" d="M251.3,84.9l12.9-1c1.1-0.1,2.1,0.7,2.2,1.9L267,93c0.1,1.1-0.8,2.1-1.9,2.2l-12.9,1
				c-1.1,0.1-2.1-0.7-2.2-1.9l-0.6-7.3C249.4,85.9,250.2,85,251.3,84.9z"/>
			<path class="st4" d="M101.1,110.3l7.2-0.6c1.1-0.1,2.1,0.7,2.1,1.8l0.6,7.3c0.1,1.1-0.7,2.1-1.8,2.1l-7.2,0.6
				c-1.1,0.1-2.1-0.7-2.1-1.8l-0.6-7.3C99.1,111.4,100,110.4,101.1,110.3z"/>
			<path class="st4" d="M114.8,109.2l7.2-0.6c1.1-0.1,2.1,0.7,2.1,1.8l0.6,7.4c0.1,1.1-0.7,2.1-1.8,2.1l-7.2,0.6
				c-1.1,0.1-2.1-0.7-2.2-1.8l-0.6-7.3C112.9,110.3,113.7,109.3,114.8,109.2z"/>
			<path class="st4" d="M128.5,108.1l7.2-0.6c1.1-0.1,2.1,0.7,2.1,1.8l0.6,7.4c0.1,1.1-0.7,2.1-1.8,2.1l-7.2,0.6
				c-1.1,0.1-2.1-0.7-2.1-1.8l-0.6-7.4C126.6,109.2,127.4,108.2,128.5,108.1z"/>
			<path class="st4" d="M142.3,107l7.2-0.6c1.1-0.1,2.1,0.7,2.1,1.8l0.6,7.3c0.1,1.1-0.7,2.1-1.8,2.1l-7.2,0.6
				c-1.1,0.1-2.1-0.7-2.1-1.8l-0.6-7.3C140.4,108.1,141.2,107.1,142.3,107z"/>
			<path class="st4" d="M156,105.9l7.2-0.6c1.1-0.1,2.1,0.7,2.2,1.8l0.6,7.3c0.1,1.1-0.7,2.1-1.8,2.1l-7.2,0.6
				c-1.1,0.1-2.1-0.7-2.1-1.8l-0.6-7.3C154.1,107,154.9,106,156,105.9z"/>
			<path class="st4" d="M169.7,104.8l7.2-0.6c1.1-0.1,2.1,0.7,2.2,1.8l0.6,7.3c0.1,1.1-0.7,2.1-1.8,2.1l-7.2,0.6
				c-1.1,0.1-2.1-0.7-2.1-1.8l-0.6-7.3C167.8,105.9,168.6,104.9,169.7,104.8z"/>
			<path class="st4" d="M183.5,103.7l7.2-0.6c1.1-0.1,2.1,0.7,2.2,1.8l0.6,7.3c0.1,1.1-0.7,2.1-1.8,2.1l-7.2,0.6
				c-1.1,0.1-2.1-0.7-2.1-1.8l-0.6-7.3C181.6,104.8,182.4,103.8,183.5,103.7z"/>
			<path class="st4" d="M197.2,102.6l7.1-0.6c1.1-0.1,2.1,0.7,2.1,1.8l0.6,7.3c0.1,1.1-0.7,2.1-1.8,2.2l-7.2,0.6
				c-1.1,0.1-2.1-0.7-2.1-1.8l-0.6-7.4C195.3,103.7,196.1,102.7,197.2,102.6z"/>
			<path class="st4" d="M210.9,101.5l7.2-0.6c1.1-0.1,2.1,0.7,2.2,1.8l0.6,7.3c0.1,1.1-0.7,2.1-1.8,2.1l-7.2,0.6
				c-1.1,0.1-2.1-0.7-2.2-1.8l-0.6-7.3C209,102.5,209.8,101.6,210.9,101.5z"/>
			<path class="st4" d="M224.7,100.4l7.2-0.6c1.1-0.1,2.1,0.7,2.1,1.8l0.6,7.3c0.1,1.1-0.7,2.1-1.8,2.2l-7.2,0.6
				c-1.1,0.1-2.1-0.7-2.1-1.8l-0.6-7.4C222.8,101.4,223.6,100.5,224.7,100.4z"/>
			<path class="st4" d="M238.4,99.3l12.9-1c1.1-0.1,2.1,0.7,2.2,1.9l0.6,7.3c0.1,1.1-0.7,2.1-1.9,2.2l-12.9,1
				c-1.1,0.1-2.1-0.7-2.2-1.9l-0.6-7.3C236.5,100.3,237.3,99.4,238.4,99.3z"/>
			<path class="st4" d="M258.7,97.6l6.8-0.6c1-0.1,2,0.7,2,1.7l0.6,7.5c0.1,1-0.7,2-1.7,2l-6.8,0.5c-1,0.1-2-0.7-2-1.7l-0.6-7.5
				C256.8,98.6,257.6,97.7,258.7,97.6z"/>
			<path class="st4" d="M153,127.1l71.4-5.8c1.1-0.1,2.1,0.7,2.1,1.8l2.8,34.3c0.1,1.1-0.7,2-1.8,2.1l-71.4,5.8
				c-1.1,0.1-2.1-0.7-2.1-1.8l-2.8-34.3C151.1,128.2,151.9,127.2,153,127.1z"/>
			<path class="st4" d="M154.7,168.1l35.5-2.9c0.2,0,0.4,0.2,0.4,0.4l0.6,7.1c0,0.2-0.2,0.4-0.4,0.4l-35.5,2.9
				c-0.2,0-0.4-0.2-0.4-0.4l-0.6-7.1C154.3,168.3,154.5,168.1,154.7,168.1z"/>
			<path class="st4" d="M193.7,165l35.5-2.9c0.2,0,0.4,0.1,0.4,0.4l0.6,7.1c0,0.2-0.1,0.4-0.4,0.4l-35.5,2.9c-0.2,0-0.4-0.1-0.4-0.4
				l-0.6-7.1C193.3,165.2,193.5,165,193.7,165z"/>
		</g>
		<path class="st4" d="M311.2,6.3c0.3,3.6-2.4,6.8-6,7.1l-252,20.1c-3.6,0.3-6.8-2.4-7.1-6l0,0c-0.3-3.6,2.4-6.8,6-7.1l252-20.1
			C307.8,0.1,310.9,2.7,311.2,6.3L311.2,6.3z"/>
	</g>
	<g id="coffee">
		<path class="st5" d="M43.7,284.6c-24.2,0-43.8-19.6-43.8-43.8c0-24.2,19.6-43.8,43.8-43.8c24.2,0,43.8,19.6,43.8,43.8
			C87.5,265,67.9,284.6,43.7,284.6z"/>
		<path class="st0" d="M31.4,286c-1.2-0.3-2.2-1.1-2.9-2.2c-0.6-1.1-0.8-2.4-0.5-3.6l3.7-13.7l9.1,2.5l-3.7,13.7
			c-0.3,1.2-1.1,2.2-2.2,2.9C33.8,286.2,32.5,286.3,31.4,286z"/>
		<path class="st6" d="M40.9,269l-9.1-2.5l-1.4,5.1c2.9,1.2,5.9,2.1,9.1,2.5L40.9,269z"/>
		<path class="st0" d="M43.7,270.4c-16.4,0-29.6-13.3-29.6-29.6c0-16.4,13.3-29.6,29.6-29.6c16.4,0,29.6,13.3,29.6,29.6
			C73.3,257.1,60.1,270.4,43.7,270.4z"/>
		<path class="st7" d="M43.7,265.7c-13.7,0-24.9-11.1-24.9-24.9c0-13.7,11.1-24.9,24.9-24.9c13.7,0,24.9,11.1,24.9,24.9
			C68.6,254.5,57.4,265.7,43.7,265.7z"/>
		<path class="st8" d="M36.6,223c13.7,0,24.9,11.1,24.9,24.9c0,5.1-1.5,9.8-4.1,13.7c6.8-4.5,11.2-12.1,11.2-20.8
			c0-13.7-11.1-24.9-24.9-24.9c-8.7,0-16.3,4.5-20.8,11.2C26.9,224.5,31.6,223,36.6,223z"/>
	</g>
</g>
</svg>
