<?xml version="1.0" encoding="utf-8"?>
<!-- Generator: Adobe Illustrator 19.0.1, SVG Export Plug-In . SVG Version: 6.00 Build 0)  -->
<svg version="1.1" id="Tests" xmlns="http://www.w3.org/2000/svg" xmlns:xlink="http://www.w3.org/1999/xlink" x="0px" y="0px"
	 viewBox="0 0 31.2 31.6" style="enable-background:new 0 0 31.2 31.6;" xml:space="preserve">
<style type="text/css">
	.st0{fill:#FFFFFF;}
</style>
<g id="thetta_4_" transform="translate(0,497) scale(0.124468,-0.124468)">
	<path class="st0" d="M119.1,3992.9c-28-2.5-46.6-9.1-67.9-24c-8.5-5.9-22.6-19.4-28.3-27.1c-11.7-15.7-19.4-35.2-22-56.2
		c-1.2-9.6-1.1-29.8,0.3-39.5c6-41.5,32.1-78.7,67-95.4c10.8-5.2,21.6-8.4,35.2-10.4c9.4-1.4,31.8-1.6,40.2-0.3
		c27.4,4.1,51.1,16,71.1,35.8c24.8,24.5,36.4,53.6,36.4,91.5c0,41.2-14.1,71.8-44.2,96.6c-18.3,15.1-39.9,24.9-61.7,27.9
		C139.7,3992.7,123.5,3993.3,119.1,3992.9z M140.6,3978.6c28.3-4.9,47.4-23,58.6-55.6c2.5-7.2,5-18.4,6.8-29.6
		c1.6-10.4,1.8-48.1,0.3-58.1c-5-33.7-16.9-56.5-36.7-70.5c-12.9-9-26.9-13.1-45.1-13.1c-21.1,0.1-35.8,5.5-49.2,18.3
		c-22.7,21.7-34.9,63.6-31.9,110.4c1.2,19.4,3.4,31.1,8.1,44.6c10.8,31.1,34.3,51.2,63.3,54.3
		C121.6,3980.3,133.5,3979.8,140.6,3978.6z"/>
	<path class="st0" d="M79.5,3866.1V3823h3.8H87v2.8c0.1,6.3,3,14.6,6.4,18.5c2.4,2.7,7.9,5.1,13.9,6.1c7.2,1.2,36,0.6,40.6-0.8
		c9.2-2.9,14.3-9.3,15.2-19.6c0.6-7.2,0.6-7,4.4-7h3.4v43.1v43.1h-3.4c-3.9,0-3.7,0.2-4.4-6.8c-0.8-8.3-4.2-14.5-9.7-17.4
		c-6.5-3.5-10.8-4.1-27.6-4.1c-16.1,0-20.5,0.5-26.9,3.2c-6.6,2.7-10.8,10-11.8,20.2l-0.4,4.9h-3.7h-3.7V3866.1z"/>
</g>
</svg>
